<svg xmlns="http://www.w3.org/2000/svg" width="64.034" height="64.254" viewBox="0 0 64.034 64.254">
  <path id="Anchor" d="M262.163,515.838l-2.988,5.55a1.4,1.4,0,0,1-1.922.659l-.57-.214a1.544,1.544,0,0,1-.5-2.056l5.143-9.456c.007-.012.005-.025.013-.037l.367-.634a1.394,1.394,0,0,1,.887-.662,1.38,1.38,0,0,1,1.087.185l.617.4a.388.388,0,0,1,.031.027l9.1,6.144a1.544,1.544,0,0,1,.5,2.056l-.41.451a1.4,1.4,0,0,1-2.01.291l-5.441-3.7A22.093,22.093,0,0,0,286,534.1V494h-8a2,2,0,0,1,0-4h8.078q.024-.082.055-.162a8.062,8.062,0,1,1,3.738.014q.027.073.049.148H298a2,2,0,0,1,0,4h-8v40.1a22.1,22.1,0,0,0,19.94-19.267l-5.445,3.7a1.4,1.4,0,0,1-2.01-.291l-.409-.451a1.544,1.544,0,0,1,.5-2.056l9.1-6.144a.382.382,0,0,1,.031-.027l.616-.4a1.38,1.38,0,0,1,1.087-.185,1.394,1.394,0,0,1,.887.662l.367.634c.007.012.005.025.013.037l5.143,9.456a1.544,1.544,0,0,1-.5,2.056l-.57.214a1.4,1.4,0,0,1-1.922-.659l-2.986-5.545a26.11,26.11,0,0,1-51.676-.005ZM283.969,482a4.063,4.063,0,1,0,4.063-4.063A4.067,4.067,0,0,0,283.969,482Z" transform="translate(-255.983 -473.937)" fill="#1b1b1b"/>
</svg>
