<svg xmlns="http://www.w3.org/2000/svg" width="63.976" height="64.054" viewBox="0 0 63.976 64.054">
  <path id="Diamond" d="M520.737,537.351l-30-41.822a3.535,3.535,0,0,1-.227-3.391l8.719-16.393a3.676,3.676,0,0,1,2.939-1.766h19.691q.062-.005.124-.007t.147.007h20.038a3.641,3.641,0,0,1,2.928,1.771l8.743,16.716a3.518,3.518,0,0,1-.256,3.383l-30.495,41.515a1.366,1.366,0,0,1-2.349-.013Zm1.225-10.59,10.75-30.781H511.747Zm4.5-.751,22.059-30.03H536.951Zm-8.988-.067-9.943-29.963h-11.55Zm31.593-33.963-6.428-12.291-4.293,12.291Zm-17.133,0-9.813-12.634-8.795,12.634Zm-25.731,0-4.257-12.829-6.824,12.829Zm3.581-1.911L518.2,477.98H505.773Zm25.221-.656L539,477.98H526.126Z" transform="translate(-490.178 -473.972)" fill="#fff"/>
</svg>
