<svg xmlns="http://www.w3.org/2000/svg" width="64.182" height="47.998" viewBox="0 0 64.182 47.998">
  <g id="icon" transform="translate(-724.909 -481.938)">
    <path id="Eyeglasses" d="M760.914,515.977a13.6,13.6,0,0,1,.441-3.443,13.306,13.306,0,0,0-4.377-.7,11.793,11.793,0,0,0-4.348.764,13.971,13.971,0,0,1-13.547,17.34,14.14,14.14,0,0,1-14.168-13.959q0-.454.029-.9a2,2,0,0,1-.031-.528c.06-.865,3.113-19.831,3.623-22.888.049-.293.087-.606.13-.933.392-3.073,1.127-8.789,10.342-8.789a2,2,0,1,1,0,4c-5.7,0-6,2.338-6.375,5.3-.049.379-.1.742-.153,1.08-.238,1.437-1.335,7.185-2.262,12.808a14.226,14.226,0,0,1,8.863-3.107,13.952,13.952,0,0,1,12.029,6.873,15.658,15.658,0,0,1,5.866-1.058,17,17,0,0,1,5.948,1.013,14.288,14.288,0,0,1,12.156-6.828,13.9,13.9,0,0,1,8.442,2.841c-.914-5.548-1.972-11.136-2.206-12.542-.056-.338-.1-.7-.152-1.08-.379-2.961-.68-5.3-6.375-5.3a2,2,0,1,1,0-4c9.214,0,9.949,5.717,10.342,8.789.042.328.082.64.13.933.51,3.056,3.762,22.148,3.822,23.014a1.991,1.991,0,0,1-.06.652q.015.323.015.65a13.96,13.96,0,0,1-13.959,13.959A14.14,14.14,0,0,1,760.914,515.977Zm4,0a10.2,10.2,0,0,0,10.168,9.959,9.97,9.97,0,0,0,9.959-9.959q0-.24-.011-.477a1.684,1.684,0,0,1-.132-.541c-.026-.367-.062-.769-.106-1.2a9.975,9.975,0,0,0-9.711-7.743A10.2,10.2,0,0,0,764.914,515.977Zm-36,0a10.2,10.2,0,0,0,10.167,9.959,9.959,9.959,0,1,0,0-19.919A10.2,10.2,0,0,0,728.916,515.977Z" fill="#1b1b1b"/>
  </g>
</svg>
